<?xml version="1.0" encoding="iso-8859-1"?>
<!-- Uploaded to: SVG Repo, www.svgrepo.com, Generator: SVG Repo Mixer Tools -->
<svg fill="#000000" height="800px" width="800px" version="1.1" id="Layer_1" xmlns="http://www.w3.org/2000/svg" xmlns:xlink="http://www.w3.org/1999/xlink" 
	 viewBox="0 0 512 512" xml:space="preserve">
<g>
	<g>
		<path d="M337,384c-6.982,0-11.636,4.655-11.636,11.636v9.309c0,19.782-9.309,38.4-25.6,50.036L256.709,486.4l-44.218-31.418
			c-16.291-11.636-26.764-30.255-26.764-51.2v-8.145c0-6.982-4.655-11.636-11.636-11.636c-6.982,0-11.636,4.655-11.636,11.636v8.146
			c0,27.927,13.964,53.527,36.073,69.818l51.2,36.073c2.327,1.164,4.655,2.327,6.982,2.327c2.327,0,4.655-1.164,6.982-2.327
			l50.036-36.073c22.109-16.291,34.909-41.891,34.909-68.655v-9.309C348.637,388.655,343.982,384,337,384z"/>
	</g>
</g>
<g>
	<g>
		<path d="M268.346,47.709c4.655-13.964,18.618-24.436,33.745-24.436c6.982,0,11.636-4.655,11.636-11.636S309.073,0,302.091,0
			c-18.618,0-36.073,9.309-46.545,23.273C245.073,9.309,227.619,0,209,0c-6.982,0-11.636,4.655-11.636,11.636
			S202.019,23.273,209,23.273c15.127,0,29.091,10.473,33.745,24.436c-32.582,6.982-57.018,34.909-57.018,68.655
			c0,6.982,4.655,11.636,11.636,11.636S209,123.345,209,116.364c0-25.6,20.945-46.545,46.545-46.545
			c25.6,0,46.545,20.945,46.545,46.545c0,6.982,4.655,11.636,11.636,11.636s11.636-4.655,11.636-11.636
			C325.364,82.618,300.928,54.691,268.346,47.709z"/>
	</g>
</g>
<g>
	<g>
		<path d="M290.455,407.273h-69.818c-6.982,0-11.636,4.655-11.636,11.636s4.655,11.636,11.636,11.636h69.818
			c6.982,0,11.636-4.655,11.636-11.636S297.437,407.273,290.455,407.273z"/>
	</g>
</g>
<g>
	<g>
		<path d="M290.455,349.091h-69.818c-6.982,0-11.636,4.655-11.636,11.636s4.655,11.636,11.636,11.636h69.818
			c6.982,0,11.636-4.655,11.636-11.636S297.437,349.091,290.455,349.091z"/>
	</g>
</g>
<g>
	<g>
		<path d="M268.346,290.909h-23.273c-6.982,0-11.636,4.655-11.636,11.636s4.655,11.636,11.636,11.636h23.273
			c6.982,0,11.636-4.655,11.636-11.636S275.328,290.909,268.346,290.909z"/>
	</g>
</g>
<g>
	<g>
		<path d="M452.2,233.891C404.491,178.036,264.855,130.327,259.037,128c-2.327-1.164-4.655-1.164-6.982,0
			c-5.818,2.327-145.455,50.036-193.164,105.891C41.437,254.836,32.128,281.6,34.455,307.2c2.327,23.273,12.8,43.055,29.091,57.018
			c37.236,31.418,96.582,23.273,130.327-17.455c19.782-23.273,38.4-65.164,53.527-123.345c1.164-5.818-2.327-12.8-8.145-13.964
			s-12.8,2.327-13.964,8.146c-15.127,54.691-31.418,94.255-48.873,114.036c-26.764,31.418-69.818,37.236-97.745,13.964
			c-12.8-10.473-19.782-24.436-20.945-41.891c-1.164-19.782,4.655-39.564,18.618-55.855c39.564-46.545,155.927-89.6,179.2-97.745
			c22.109,8.145,139.636,51.2,179.2,97.745c13.964,16.291,20.945,36.073,18.618,55.855C452.2,320,444.055,335.127,432.419,345.6
			c-27.927,23.273-72.145,16.291-97.745-13.964c-17.455-20.945-34.909-60.509-48.873-114.036c-1.164-5.818-8.145-9.309-13.964-8.145
			s-9.309,8.145-8.146,13.964c16.291,58.182,33.745,100.073,53.527,123.345c19.782,23.273,48.873,36.073,76.8,36.073
			c19.782,0,38.4-5.818,54.691-18.618c17.455-13.964,27.927-34.909,29.091-57.018C478.964,281.6,469.655,254.836,452.2,233.891z"/>
	</g>
</g>
</svg>